<?xml version="1.0" encoding="UTF-8" standalone="no"?>
<!DOCTYPE svg PUBLIC "-//W3C//DTD SVG 1.1//EN" "http://www.w3.org/Graphics/SVG/1.1/DTD/svg11.dtd">
<svg width="100%" height="100%" viewBox="0 0 1500 1950" version="1.1" xmlns="http://www.w3.org/2000/svg" xmlns:xlink="http://www.w3.org/1999/xlink" xml:space="preserve" xmlns:serif="http://www.serif.com/" style="fill-rule:evenodd;clip-rule:evenodd;stroke-linecap:round;stroke-linejoin:round;stroke-miterlimit:1.5;">
    <g transform="matrix(1,0,0,1,-7947.61,-1328.27)">
        <g id="Logo" transform="matrix(0.588235,0,0,0.590909,7947.61,1328.27)">
            <rect x="0" y="0" width="2550" height="3300" style="fill:none;"/>
            <g transform="matrix(11.3872,0,0,7.69631,-23862.7,-17441.8)">
                <g transform="matrix(0.341286,0.284159,-0.192928,0.502671,1975.06,1800.82)">
                    <g transform="matrix(1,0,0,1,-120.264,-1034.06)">
                        <path d="M1059.06,1967.95L925.237,1644.32L1000.41,1534.25L1102.33,1538.28L1145.74,1612.97L1068.63,1699.63L1030.32,1699.27L1073.03,1768.3C1073.03,1768.3 1158.22,1829.57 1194.58,1854.82C1226.47,1876.97 1294.22,1887.11 1291.22,1919.81C1288.23,1952.5 1204.62,2028.8 1176.6,2051C1162.61,2062.09 1137.67,2063.31 1123.1,2053.01C1103.51,2039.17 1059.06,1967.95 1059.06,1967.95Z" style="fill:rgb(192,192,192);"/>
                        <path d="M996.745,1522.3L998.801,1521.86L1000.9,1521.76L1102.82,1525.79L1104.9,1526.05L1106.9,1526.65L1108.78,1527.57L1110.47,1528.8L1111.94,1530.29L1113.14,1532L1156.55,1606.69L1157.4,1608.45L1157.96,1610.33L1158.22,1612.27L1158.18,1614.22L1157.83,1616.15L1157.19,1618L1156.26,1619.72L1155.08,1621.28L1077.97,1707.93L1076.43,1709.4L1074.65,1710.58L1072.71,1711.44L1070.64,1711.96L1068.52,1712.12L1052.89,1711.98L1082.35,1759.6L1084.06,1760.83L1086.06,1762.26L1088.43,1763.97L1091.15,1765.92L1094.2,1768.11L1097.55,1770.52L1101.18,1773.12L1105.07,1775.91L1109.18,1778.86L1111.32,1780.38L1113.5,1781.95L1115.73,1783.54L1118,1785.17L1120.31,1786.82L1122.66,1788.5L1125.03,1790.2L1127.44,1791.92L1129.88,1793.66L1132.33,1795.42L1134.81,1797.19L1137.31,1798.97L1139.82,1800.76L1142.34,1802.56L1144.86,1804.36L1147.4,1806.17L1149.93,1807.98L1152.47,1809.78L1155,1811.58L1157.52,1813.38L1160.04,1815.17L1162.54,1816.94L1165.02,1818.71L1167.48,1820.46L1169.92,1822.19L1172.34,1823.9L1174.73,1825.59L1175.91,1826.43L1177.08,1827.26L1178.24,1828.08L1179.4,1828.9L1180.55,1829.7L1181.68,1830.51L1182.81,1831.3L1183.92,1832.09L1185.02,1832.87L1186.12,1833.64L1187.2,1834.4L1188.27,1835.15L1189.32,1835.89L1190.36,1836.62L1191.39,1837.35L1192.41,1838.06L1193.41,1838.76L1194.39,1839.45L1195.37,1840.13L1196.32,1840.8L1197.26,1841.46L1198.19,1842.1L1199.09,1842.74L1199.98,1843.36L1200.86,1843.96L1201.71,1844.55L1201.88,1844.67L1202.02,1844.77L1202.18,1844.88L1202.35,1844.99L1202.5,1845.1L1202.66,1845.2L1202.83,1845.31L1202.99,1845.42L1203.16,1845.53L1203.33,1845.64L1203.49,1845.75L1203.65,1845.85L1203.82,1845.96L1204,1846.07L1204.16,1846.18L1204.34,1846.29L1204.51,1846.4L1204.68,1846.5L1204.86,1846.61L1205.03,1846.72L1205.2,1846.83L1205.38,1846.93L1205.57,1847.05L1205.75,1847.16L1205.92,1847.26L1206.11,1847.37L1206.29,1847.48L1206.47,1847.59L1206.65,1847.69L1206.84,1847.8L1207.03,1847.91L1207.21,1848.02L1207.4,1848.13L1207.59,1848.24L1207.78,1848.34L1207.96,1848.45L1208.16,1848.56L1208.35,1848.67L1208.54,1848.77L1208.74,1848.88L1208.93,1848.99L1209.12,1849.1L1209.32,1849.2L1209.52,1849.32L1209.72,1849.42L1209.91,1849.53L1210.11,1849.64L1210.32,1849.75L1210.51,1849.85L1210.72,1849.96L1210.92,1850.07L1211.12,1850.18L1211.33,1850.29L1211.53,1850.39L1211.74,1850.5L1211.94,1850.61L1212.15,1850.71L1212.36,1850.82L1212.57,1850.93L1212.78,1851.03L1212.99,1851.14L1213.2,1851.25L1213.41,1851.35L1213.63,1851.46L1213.83,1851.57L1214.05,1851.67L1214.27,1851.78L1214.48,1851.89L1214.69,1851.99L1214.91,1852.1L1215.13,1852.21L1215.35,1852.31L1215.56,1852.42L1215.79,1852.53L1216.01,1852.64L1216.23,1852.74L1216.45,1852.85L1216.66,1852.95L1216.89,1853.06L1217.12,1853.17L1217.34,1853.27L1217.56,1853.37L1217.78,1853.48L1218.01,1853.59L1218.24,1853.69L1218.47,1853.8L1218.68,1853.9L1219.15,1854.12L1219.38,1854.22L1219.84,1854.43L1220.3,1854.64L1220.76,1854.86L1221.23,1855.07L1221.69,1855.28L1222.16,1855.49L1222.64,1855.7L1223.11,1855.91L1223.59,1856.12L1224.07,1856.33L1224.54,1856.54L1225.02,1856.75L1225.51,1856.96L1225.99,1857.17L1226.48,1857.38L1226.96,1857.59L1227.45,1857.79L1227.94,1858L1228.44,1858.21L1228.93,1858.42L1229.43,1858.63L1229.92,1858.84L1230.42,1859.05L1230.91,1859.26L1231.42,1859.47L1231.92,1859.67L1232.42,1859.88L1232.93,1860.09L1233.43,1860.3L1233.93,1860.51L1234.44,1860.72L1235.46,1861.14L1236.48,1861.56L1237.5,1861.98L1238.52,1862.4L1240.58,1863.24L1241.61,1863.66L1242.65,1864.08L1243.68,1864.51L1244.71,1864.93L1245.75,1865.36L1246.27,1865.57L1246.79,1865.79L1247.31,1866L1247.83,1866.22L1248.34,1866.43L1248.86,1866.65L1249.38,1866.86L1249.9,1867.08L1250.42,1867.3L1250.93,1867.51L1251.45,1867.73L1251.96,1867.95L1252.48,1868.17L1253,1868.39L1253.52,1868.61L1254.03,1868.83L1254.54,1869.05L1255.06,1869.27L1255.57,1869.49L1256.08,1869.72L1256.6,1869.94L1257.11,1870.17L1257.62,1870.39L1258.13,1870.62L1258.64,1870.84L1259.15,1871.07L1259.66,1871.3L1260.17,1871.53L1260.67,1871.76L1261.18,1871.99L1261.68,1872.22L1261.94,1872.34L1262.19,1872.45L1262.44,1872.57L1262.69,1872.68L1262.94,1872.8L1263.19,1872.92L1263.44,1873.03L1263.69,1873.15L1263.95,1873.27L1264.19,1873.39L1264.44,1873.51L1264.7,1873.63L1264.94,1873.75L1265.19,1873.86L1265.44,1873.98L1265.68,1874.1L1265.93,1874.22L1266.18,1874.34L1266.43,1874.47L1266.67,1874.58L1266.92,1874.7L1267.17,1874.83L1267.42,1874.95L1267.66,1875.07L1267.9,1875.19L1268.15,1875.32L1268.39,1875.43L1268.64,1875.56L1268.89,1875.68L1269.12,1875.8L1269.36,1875.93L1269.61,1876.06L1269.86,1876.18L1270.1,1876.3L1270.34,1876.43L1270.58,1876.55L1270.82,1876.68L1271.06,1876.8L1271.3,1876.93L1271.54,1877.06L1271.78,1877.18L1272.02,1877.32L1272.26,1877.44L1272.49,1877.57L1272.73,1877.7L1272.98,1877.83L1273.21,1877.96L1273.44,1878.09L1273.68,1878.22L1273.91,1878.35L1274.14,1878.47L1274.39,1878.61L1274.62,1878.74L1274.85,1878.87L1275.09,1879L1275.33,1879.14L1275.55,1879.27L1275.78,1879.4L1276.01,1879.54L1276.25,1879.67L1276.49,1879.81L1276.7,1879.94L1276.93,1880.07L1277.17,1880.22L1277.4,1880.35L1277.63,1880.49L1277.86,1880.63L1278.09,1880.76L1278.31,1880.9L1278.54,1881.04L1278.76,1881.18L1278.99,1881.32L1279.21,1881.46L1279.43,1881.6L1279.66,1881.74L1279.89,1881.88L1280.11,1882.03L1280.33,1882.17L1280.56,1882.31L1280.78,1882.46L1281,1882.6L1281.22,1882.75L1281.43,1882.89L1281.66,1883.04L1281.87,1883.18L1282.09,1883.33L1282.31,1883.48L1282.53,1883.63L1282.75,1883.78L1282.96,1883.92L1283.17,1884.07L1283.39,1884.23L1283.61,1884.38L1283.82,1884.53L1284.03,1884.68L1284.24,1884.83L1284.46,1884.99L1284.67,1885.14L1284.88,1885.3L1285.09,1885.45L1285.3,1885.61L1285.51,1885.77L1285.71,1885.92L1285.93,1886.09L1286.13,1886.24L1286.34,1886.4L1286.55,1886.57L1286.74,1886.72L1286.95,1886.88L1287.16,1887.05L1287.36,1887.22L1287.55,1887.37L1287.76,1887.54L1287.97,1887.71L1288.16,1887.87L1288.36,1888.04L1288.57,1888.22L1288.76,1888.38L1288.96,1888.55L1289.16,1888.72L1289.35,1888.88L1289.54,1889.06L1289.74,1889.24L1289.93,1889.41L1290.13,1889.59L1290.32,1889.76L1290.51,1889.93L1290.71,1890.12L1290.9,1890.3L1291.08,1890.47L1291.27,1890.65L1291.46,1890.84L1291.64,1891.02L1291.83,1891.19L1292.01,1891.38L1292.2,1891.56L1292.38,1891.75L1292.57,1891.94L1292.75,1892.13L1292.93,1892.32L1293.11,1892.51L1293.29,1892.7L1293.47,1892.89L1293.64,1893.08L1293.82,1893.28L1294,1893.47L1294.17,1893.66L1294.34,1893.86L1294.51,1894.06L1294.68,1894.26L1294.86,1894.46L1295.03,1894.66L1295.19,1894.86L1295.37,1895.07L1295.53,1895.27L1295.69,1895.48L1295.85,1895.68L1296.02,1895.89L1296.11,1896.01L1296.18,1896.1L1296.27,1896.21L1296.42,1896.42L1296.51,1896.53L1296.58,1896.63L1296.66,1896.74L1296.73,1896.84L1296.81,1896.95L1296.97,1897.16L1297.05,1897.27L1297.13,1897.39L1297.21,1897.51L1297.28,1897.6L1297.35,1897.7L1297.44,1897.84L1297.57,1898.03L1297.65,1898.14L1297.81,1898.38L1297.95,1898.6L1298.1,1898.81L1298.19,1898.95L1298.31,1899.15L1298.39,1899.27L1298.46,1899.39L1298.54,1899.51L1298.61,1899.63L1298.73,1899.83L1298.82,1899.97L1298.95,1900.19L1299.08,1900.42L1299.16,1900.56L1299.28,1900.76L1299.36,1900.91L1299.49,1901.14L1299.61,1901.36L1299.69,1901.51L1299.8,1901.72L1299.88,1901.86L1300,1902.09L1300.06,1902.22L1300.18,1902.45L1300.25,1902.6L1300.37,1902.83L1300.48,1903.06L1300.54,1903.19L1300.6,1903.32L1300.66,1903.45L1300.72,1903.58L1300.78,1903.71L1300.84,1903.84L1300.94,1904.07L1301,1904.2L1301.06,1904.33L1301.16,1904.57L1301.21,1904.7L1301.27,1904.83L1301.32,1904.97L1301.37,1905.1L1301.42,1905.23L1301.48,1905.36L1301.53,1905.49L1301.57,1905.6L1301.62,1905.73L1301.67,1905.87L1301.72,1906L1301.77,1906.13L1301.82,1906.27L1301.87,1906.4L1301.91,1906.51L1301.96,1906.67L1302.01,1906.8L1302.04,1906.91L1302.09,1907.05L1302.13,1907.18L1302.18,1907.32L1302.22,1907.45L1302.27,1907.59L1302.31,1907.72L1302.35,1907.86L1302.39,1908L1302.43,1908.13L1302.46,1908.24L1302.51,1908.38L1302.55,1908.54L1302.59,1908.68L1302.62,1908.79L1302.66,1908.93L1302.7,1909.09L1302.73,1909.2L1302.77,1909.34L1302.81,1909.5L1302.87,1909.75L1302.9,1909.89L1302.94,1910.03L1302.97,1910.17L1303,1910.31L1303.04,1910.47L1303.06,1910.59L1303.09,1910.72L1303.12,1910.86L1303.15,1911L1303.2,1911.28L1303.24,1911.45L1303.26,1911.56L1303.28,1911.7L1303.31,1911.84L1303.33,1911.98L1303.36,1912.14L1303.4,1912.4L1303.43,1912.57L1303.45,1912.71L1303.47,1912.82L1303.49,1912.96L1303.51,1913.13L1303.53,1913.27L1303.55,1913.41L1303.56,1913.55L1303.58,1913.69L1303.6,1913.83L1303.61,1913.97L1303.63,1914.11L1303.64,1914.26L1303.66,1914.4L1303.67,1914.54L1303.69,1914.71L1303.7,1914.85L1303.71,1914.96L1303.72,1915.13L1303.74,1915.41L1303.76,1915.69L1303.77,1915.86L1303.78,1916L1303.78,1916.12L1303.79,1916.26L1303.8,1916.43L1303.8,1916.57L1303.81,1916.71L1303.81,1916.88L1303.81,1917.02L1303.82,1917.14L1303.82,1917.3L1303.82,1917.44L1303.82,1917.59L1303.82,1917.73L1303.82,1917.87L1303.82,1918.03L1303.82,1918.17L1303.82,1918.32L1303.81,1918.46L1303.81,1918.6L1303.81,1918.74L1303.8,1918.91L1303.8,1919.05L1303.79,1919.19L1303.78,1919.33L1303.78,1919.47L1303.77,1919.64L1303.76,1919.78L1303.75,1919.92L1303.74,1920.06L1303.73,1920.21L1303.72,1920.37L1303.71,1920.51L1303.7,1920.65L1303.68,1920.81L1303.67,1920.95L1303.66,1921.09L1303.64,1921.25L1303.63,1921.4L1303.61,1921.56L1303.59,1921.71L1303.58,1921.85L1303.56,1922.01L1303.54,1922.16L1303.52,1922.31L1303.5,1922.47L1303.48,1922.6L1303.46,1922.76L1303.43,1922.91L1303.41,1923.07L1303.39,1923.22L1303.37,1923.36L1303.34,1923.49L1303.32,1923.65L1303.29,1923.82L1303.27,1923.95L1303.24,1924.09L1303.21,1924.26L1303.18,1924.41L1303.15,1924.55L1303.13,1924.68L1303.1,1924.84L1303.07,1924.99L1303.04,1925.14L1303.01,1925.28L1302.98,1925.41L1302.94,1925.58L1302.91,1925.74L1302.88,1925.88L1302.85,1926.01L1302.81,1926.16L1302.77,1926.31L1302.74,1926.47L1302.7,1926.6L1302.67,1926.73L1302.63,1926.9L1302.59,1927.06L1302.56,1927.18L1302.52,1927.33L1302.48,1927.48L1302.44,1927.62L1302.4,1927.77L1302.36,1927.92L1302.32,1928.07L1302.28,1928.2L1302.24,1928.34L1302.2,1928.49L1302.16,1928.63L1302.11,1928.78L1302.07,1928.93L1302.03,1929.07L1301.98,1929.22L1301.94,1929.35L1301.89,1929.49L1301.85,1929.64L1301.8,1929.79L1301.75,1929.94L1301.71,1930.08L1301.66,1930.22L1301.61,1930.37L1301.57,1930.5L1301.52,1930.65L1301.47,1930.79L1301.42,1930.93L1301.37,1931.09L1301.32,1931.23L1301.27,1931.36L1301.22,1931.52L1301.17,1931.65L1301.12,1931.79L1301.06,1931.94L1301.01,1932.09L1300.96,1932.23L1300.91,1932.37L1300.85,1932.51L1300.8,1932.65L1300.75,1932.79L1300.69,1932.94L1300.63,1933.09L1300.58,1933.23L1300.52,1933.37L1300.46,1933.52L1300.41,1933.66L1300.35,1933.79L1300.29,1933.94L1300.24,1934.08L1300.18,1934.22L1300.12,1934.38L1300,1934.65L1299.88,1934.94L1299.76,1935.22L1299.64,1935.51L1299.51,1935.8L1299.39,1936.08L1299.26,1936.36L1299.13,1936.65L1299,1936.94L1298.87,1937.22L1298.74,1937.51L1298.6,1937.79L1298.47,1938.08L1298.33,1938.36L1298.19,1938.65L1298.05,1938.93L1297.91,1939.22L1297.77,1939.51L1297.63,1939.79L1297.48,1940.08L1297.33,1940.37L1297.19,1940.65L1297.04,1940.94L1296.89,1941.23L1296.74,1941.52L1296.58,1941.8L1296.43,1942.09L1296.27,1942.38L1296.12,1942.67L1295.96,1942.95L1295.8,1943.24L1295.64,1943.53L1295.48,1943.82L1295.31,1944.11L1295.15,1944.4L1294.99,1944.69L1294.82,1944.98L1294.65,1945.27L1294.48,1945.56L1294.31,1945.85L1294.14,1946.14L1293.97,1946.43L1293.79,1946.72L1293.62,1947.01L1293.44,1947.3L1293.26,1947.6L1293.09,1947.89L1292.91,1948.18L1292.72,1948.47L1292.54,1948.77L1292.36,1949.06L1292.18,1949.35L1291.99,1949.64L1291.8,1949.94L1291.61,1950.24L1291.43,1950.53L1291.24,1950.82L1291.04,1951.12L1290.85,1951.41L1290.66,1951.71L1290.47,1952L1290.27,1952.3L1290.07,1952.6L1289.88,1952.89L1289.68,1953.19L1289.48,1953.49L1289.28,1953.78L1289.07,1954.08L1288.87,1954.38L1288.67,1954.68L1288.46,1954.98L1288.26,1955.27L1288.05,1955.57L1287.84,1955.87L1287.63,1956.17L1287.42,1956.47L1287.21,1956.77L1287,1957.07L1286.79,1957.37L1286.57,1957.67L1286.36,1957.97L1286.14,1958.27L1285.92,1958.58L1285.7,1958.88L1285.49,1959.18L1285.27,1959.48L1285.05,1959.78L1284.82,1960.09L1284.6,1960.39L1284.38,1960.69L1284.15,1961L1283.93,1961.3L1283.7,1961.6L1283.47,1961.91L1283.25,1962.21L1283.02,1962.52L1282.78,1962.82L1282.55,1963.12L1282.32,1963.43L1282.09,1963.74L1281.86,1964.04L1281.62,1964.35L1281.39,1964.65L1281.15,1964.96L1280.91,1965.26L1280.67,1965.57L1280.43,1965.88L1280.19,1966.19L1279.95,1966.49L1279.71,1966.8L1279.47,1967.11L1279.23,1967.42L1278.99,1967.72L1278.74,1968.03L1278.5,1968.34L1278.25,1968.65L1278,1968.96L1277.75,1969.27L1277.51,1969.57L1277.26,1969.88L1277.01,1970.19L1276.75,1970.5L1276.5,1970.81L1276.25,1971.12L1276,1971.43L1275.74,1971.74L1275.49,1972.05L1275.23,1972.36L1274.98,1972.67L1274.72,1972.98L1274.46,1973.29L1274.21,1973.6L1273.95,1973.92L1273.69,1974.23L1273.43,1974.54L1273.16,1974.85L1272.9,1975.16L1272.64,1975.47L1272.38,1975.78L1272.11,1976.1L1271.85,1976.41L1271.59,1976.72L1271.32,1977.03L1271.05,1977.35L1270.79,1977.66L1270.52,1977.97L1270.25,1978.28L1269.98,1978.6L1269.71,1978.91L1269.44,1979.22L1269.17,1979.53L1268.9,1979.85L1268.63,1980.16L1268.36,1980.47L1268.08,1980.79L1267.81,1981.1L1267.54,1981.41L1267.26,1981.72L1266.98,1982.04L1266.71,1982.35L1266.43,1982.66L1266.15,1982.98L1265.88,1983.29L1265.6,1983.6L1265.32,1983.92L1265.04,1984.23L1264.76,1984.54L1264.48,1984.86L1264.2,1985.17L1263.92,1985.48L1263.64,1985.8L1263.36,1986.11L1263.07,1986.42L1262.79,1986.74L1262.51,1987.05L1262.22,1987.37L1261.94,1987.68L1261.65,1987.99L1261.37,1988.3L1261.08,1988.62L1260.8,1988.93L1260.51,1989.24L1260.22,1989.56L1259.93,1989.87L1259.65,1990.18L1259.36,1990.5L1259.07,1990.81L1258.78,1991.12L1258.49,1991.43L1258.2,1991.75L1257.91,1992.06L1257.62,1992.37L1257.33,1992.68L1257.04,1993L1256.75,1993.31L1256.46,1993.62L1256.16,1993.93L1255.87,1994.24L1255.58,1994.56L1255.29,1994.87L1254.99,1995.18L1254.7,1995.49L1254.4,1995.8L1254.11,1996.11L1253.82,1996.42L1253.52,1996.73L1253.22,1997.05L1252.93,1997.36L1252.63,1997.67L1252.34,1997.98L1252.04,1998.29L1251.74,1998.6L1251.45,1998.91L1251.15,1999.22L1250.56,1999.83L1249.96,2000.45L1249.36,2001.07L1248.76,2001.68L1248.16,2002.3L1247.57,2002.92L1246.97,2003.53L1246.37,2004.14L1245.77,2004.76L1245.16,2005.37L1244.56,2005.98L1243.96,2006.58L1243.36,2007.19L1242.75,2007.8L1242.15,2008.4L1241.55,2009.01L1240.94,2009.61L1240.34,2010.22L1239.73,2010.82L1239.13,2011.41L1238.53,2012.01L1237.92,2012.61L1237.32,2013.2L1236.71,2013.8L1236.11,2014.39L1235.51,2014.98L1234.9,2015.57L1234.3,2016.16L1233.7,2016.75L1233.1,2017.33L1232.5,2017.91L1231.89,2018.49L1231.29,2019.07L1230.69,2019.65L1230.09,2020.23L1229.5,2020.8L1228.9,2021.37L1228.3,2021.94L1227.7,2022.51L1227.11,2023.08L1226.52,2023.64L1225.92,2024.21L1225.33,2024.77L1224.74,2025.32L1224.15,2025.88L1223.56,2026.43L1222.97,2026.98L1222.38,2027.53L1221.8,2028.08L1221.22,2028.62L1220.63,2029.17L1220.05,2029.71L1219.47,2030.25L1218.9,2030.78L1218.32,2031.31L1217.75,2031.84L1217.17,2032.37L1216.6,2032.9L1216.03,2033.42L1215.47,2033.94L1214.9,2034.46L1214.34,2034.97L1213.78,2035.48L1213.21,2035.99L1212.66,2036.5L1212.1,2037L1211.55,2037.5L1211,2038L1210.45,2038.5L1209.9,2038.99L1209.36,2039.48L1208.82,2039.96L1208.28,2040.44L1207.74,2040.92L1207.21,2041.4L1206.67,2041.87L1206.14,2042.34L1205.62,2042.81L1205.1,2043.27L1204.58,2043.73L1204.06,2044.19L1203.54,2044.64L1203.03,2045.1L1202.52,2045.54L1202.01,2045.98L1201.51,2046.42L1201.01,2046.86L1200.51,2047.29L1200.02,2047.72L1199.53,2048.15L1199.04,2048.57L1198.56,2048.99L1198.08,2049.4L1197.6,2049.81L1197.12,2050.22L1196.65,2050.62L1196.19,2051.02L1195.72,2051.42L1195.26,2051.81L1194.81,2052.2L1194.36,2052.58L1193.91,2052.96L1193.46,2053.34L1193.02,2053.71L1192.59,2054.07L1192.15,2054.44L1191.72,2054.8L1191.3,2055.15L1190.88,2055.5L1190.46,2055.85L1190.05,2056.19L1189.64,2056.53L1189.23,2056.86L1188.83,2057.19L1188.43,2057.52L1188.04,2057.84L1187.65,2058.16L1187.27,2058.47L1186.89,2058.78L1186.52,2059.08L1186.15,2059.38L1185.78,2059.67L1185.42,2059.96L1185.07,2060.24L1184.71,2060.53L1184.36,2060.81L1184.25,2060.89L1184.14,2060.98L1184.02,2061.07L1183.91,2061.16L1183.8,2061.24L1183.68,2061.33L1183.57,2061.42L1183.45,2061.51L1183.34,2061.59L1183.22,2061.68L1183.11,2061.76L1182.99,2061.85L1182.88,2061.93L1182.76,2062.02L1182.64,2062.1L1182.53,2062.18L1182.4,2062.27L1182.29,2062.35L1182.18,2062.43L1182.05,2062.52L1181.94,2062.6L1181.82,2062.68L1181.7,2062.76L1181.59,2062.84L1181.46,2062.92L1181.35,2063L1181.23,2063.08L1181.11,2063.16L1180.99,2063.24L1180.87,2063.32L1180.75,2063.39L1180.62,2063.47L1180.51,2063.55L1180.39,2063.62L1180.27,2063.7L1180.14,2063.78L1180.03,2063.86L1179.9,2063.93L1179.78,2064.01L1179.66,2064.08L1179.54,2064.15L1179.42,2064.23L1179.29,2064.3L1179.17,2064.38L1179.05,2064.45L1178.93,2064.52L1178.81,2064.59L1178.68,2064.67L1178.56,2064.74L1178.43,2064.81L1178.31,2064.88L1178.19,2064.95L1178.06,2065.02L1177.94,2065.09L1177.81,2065.16L1177.69,2065.23L1177.57,2065.29L1177.44,2065.36L1177.31,2065.43L1177.19,2065.5L1177.07,2065.57L1176.94,2065.63L1176.81,2065.7L1176.68,2065.77L1176.56,2065.83L1176.44,2065.89L1176.31,2065.96L1176.18,2066.03L1176.06,2066.09L1175.93,2066.16L1175.8,2066.22L1175.68,2066.28L1175.55,2066.35L1175.42,2066.41L1175.3,2066.47L1175.16,2066.54L1174.91,2066.66L1174.65,2066.78L1174.4,2066.9L1174.14,2067.02L1173.88,2067.13L1173.62,2067.25L1173.36,2067.37L1173.11,2067.48L1172.85,2067.59L1172.58,2067.7L1172.32,2067.81L1172.06,2067.92L1171.8,2068.03L1171.54,2068.13L1171.27,2068.24L1171.01,2068.34L1170.74,2068.44L1170.48,2068.54L1170.21,2068.64L1169.95,2068.74L1169.68,2068.84L1169.42,2068.93L1169.15,2069.02L1168.88,2069.12L1168.61,2069.21L1168.35,2069.3L1168.08,2069.39L1167.81,2069.47L1167.54,2069.56L1167.27,2069.65L1167,2069.73L1166.73,2069.81L1166.46,2069.89L1166.19,2069.97L1165.91,2070.05L1165.64,2070.13L1165.37,2070.21L1165.1,2070.28L1164.83,2070.36L1164.55,2070.43L1164.28,2070.5L1164,2070.57L1163.73,2070.64L1163.46,2070.71L1163.18,2070.77L1162.9,2070.84L1162.63,2070.9L1162.36,2070.97L1162.08,2071.03L1161.8,2071.09L1161.53,2071.15L1161.25,2071.2L1160.97,2071.26L1160.69,2071.32L1160.42,2071.37L1160.14,2071.42L1159.86,2071.48L1159.58,2071.53L1159.3,2071.58L1159.02,2071.62L1158.74,2071.67L1158.46,2071.72L1158.19,2071.76L1157.91,2071.8L1157.63,2071.85L1157.35,2071.89L1157.07,2071.93L1156.79,2071.97L1156.51,2072.01L1156.23,2072.04L1155.94,2072.08L1155.66,2072.11L1155.38,2072.14L1155.1,2072.17L1154.82,2072.2L1154.54,2072.23L1154.26,2072.26L1153.98,2072.29L1153.69,2072.31L1153.41,2072.34L1153.13,2072.36L1152.85,2072.38L1152.56,2072.4L1152.28,2072.42L1152,2072.44L1151.71,2072.46L1151.43,2072.47L1151.15,2072.49L1150.87,2072.5L1150.58,2072.51L1150.3,2072.53L1150.02,2072.53L1149.74,2072.54L1149.45,2072.55L1149.17,2072.56L1148.89,2072.56L1148.6,2072.57L1148.32,2072.57L1148.03,2072.57L1147.75,2072.57L1147.47,2072.57L1147.19,2072.57L1146.9,2072.56L1146.62,2072.56L1146.34,2072.55L1146.05,2072.55L1145.77,2072.54L1145.49,2072.53L1145.2,2072.52L1144.92,2072.5L1144.64,2072.49L1144.35,2072.48L1144.07,2072.46L1143.79,2072.44L1143.5,2072.43L1143.22,2072.41L1142.94,2072.39L1142.66,2072.36L1142.38,2072.34L1142.09,2072.32L1141.81,2072.29L1141.53,2072.26L1141.25,2072.24L1140.96,2072.21L1140.68,2072.18L1140.4,2072.14L1140.12,2072.11L1139.84,2072.07L1139.56,2072.04L1139.27,2072L1139,2071.96L1138.71,2071.92L1138.43,2071.88L1138.15,2071.84L1137.87,2071.8L1137.59,2071.75L1137.31,2071.71L1137.03,2071.66L1136.75,2071.61L1136.47,2071.56L1136.19,2071.51L1135.91,2071.46L1135.63,2071.4L1135.36,2071.35L1135.08,2071.29L1134.8,2071.23L1134.52,2071.17L1134.24,2071.11L1133.97,2071.05L1133.69,2070.99L1133.41,2070.92L1133.14,2070.86L1132.86,2070.79L1132.59,2070.72L1132.31,2070.65L1132.03,2070.58L1131.76,2070.51L1131.48,2070.43L1131.21,2070.36L1130.94,2070.28L1130.66,2070.2L1130.39,2070.12L1130.12,2070.04L1129.84,2069.95L1129.57,2069.87L1129.31,2069.79L1129.16,2069.74L1129.03,2069.7L1128.9,2069.66L1128.76,2069.61L1128.62,2069.57L1128.49,2069.52L1128.35,2069.47L1128.22,2069.43L1128.08,2069.38L1127.94,2069.34L1127.82,2069.29L1127.68,2069.24L1127.53,2069.19L1127.41,2069.15L1127.28,2069.1L1127.14,2069.05L1127,2069L1126.87,2068.95L1126.74,2068.9L1126.6,2068.85L1126.47,2068.8L1126.34,2068.75L1126.2,2068.7L1126.07,2068.64L1125.94,2068.59L1125.8,2068.54L1125.67,2068.49L1125.53,2068.43L1125.4,2068.38L1125.28,2068.33L1125.14,2068.27L1125,2068.22L1124.87,2068.16L1124.75,2068.11L1124.61,2068.05L1124.48,2068L1124.35,2067.94L1124.22,2067.88L1124.09,2067.82L1123.95,2067.76L1123.82,2067.7L1123.69,2067.65L1123.56,2067.59L1123.42,2067.53L1123.29,2067.47L1123.17,2067.41L1123.04,2067.35L1122.91,2067.29L1122.77,2067.23L1122.64,2067.16L1122.52,2067.1L1122.39,2067.04L1122.26,2066.98L1122.13,2066.92L1122,2066.85L1121.87,2066.79L1121.74,2066.72L1121.61,2066.66L1121.49,2066.59L1121.35,2066.52L1121.23,2066.46L1121.1,2066.39L1120.97,2066.33L1120.85,2066.26L1120.71,2066.19L1120.59,2066.12L1120.46,2066.06L1120.33,2065.98L1120.2,2065.91L1120.08,2065.85L1119.95,2065.78L1119.82,2065.7L1119.69,2065.63L1119.58,2065.56L1119.45,2065.49L1119.32,2065.42L1119.19,2065.34L1119.07,2065.27L1118.95,2065.2L1118.83,2065.13L1118.69,2065.05L1118.57,2064.97L1118.45,2064.9L1118.33,2064.82L1118.2,2064.75L1118.08,2064.67L1117.95,2064.59L1117.83,2064.52L1117.71,2064.44L1117.58,2064.36L1117.46,2064.28L1117.34,2064.2L1117.22,2064.12L1117.09,2064.04L1116.98,2063.96L1116.85,2063.88L1116.73,2063.8L1116.61,2063.72L1116.48,2063.63L1116.37,2063.55L1116.25,2063.47L1116.12,2063.38L1116.01,2063.3L1115.88,2063.22L1115.72,2063.1L1115.55,2062.98L1115.38,2062.86L1115.21,2062.73L1115.05,2062.61L1114.88,2062.49L1114.72,2062.36L1114.56,2062.24L1114.39,2062.11L1114.23,2061.98L1114.07,2061.86L1113.9,2061.73L1113.74,2061.6L1113.58,2061.47L1113.42,2061.34L1113.26,2061.21L1113.1,2061.08L1112.94,2060.95L1112.78,2060.81L1112.62,2060.67L1112.46,2060.54L1112.3,2060.4L1112.14,2060.26L1111.98,2060.13L1111.83,2059.99L1111.66,2059.85L1111.5,2059.71L1111.35,2059.57L1111.19,2059.43L1111.03,2059.29L1110.87,2059.14L1110.71,2058.99L1110.56,2058.85L1110.4,2058.7L1110.24,2058.56L1110.08,2058.41L1109.92,2058.26L1109.77,2058.12L1109.61,2057.97L1109.45,2057.82L1109.29,2057.66L1109.13,2057.51L1108.97,2057.36L1108.82,2057.2L1108.66,2057.05L1108.5,2056.9L1108.34,2056.74L1108.18,2056.58L1108.02,2056.42L1107.87,2056.26L1107.71,2056.11L1107.55,2055.94L1107.39,2055.79L1107.23,2055.62L1107.07,2055.46L1106.91,2055.3L1106.76,2055.14L1106.59,2054.97L1106.43,2054.8L1106.28,2054.64L1106.11,2054.47L1105.95,2054.3L1105.79,2054.13L1105.63,2053.96L1105.47,2053.79L1105.31,2053.62L1105.15,2053.45L1104.99,2053.28L1104.83,2053.11L1104.67,2052.93L1104.51,2052.76L1104.35,2052.58L1104.19,2052.41L1104.03,2052.23L1103.86,2052.05L1103.7,2051.87L1103.54,2051.7L1103.37,2051.51L1103.21,2051.34L1103.05,2051.15L1102.88,2050.97L1102.73,2050.79L1102.56,2050.61L1102.4,2050.42L1102.24,2050.24L1102.07,2050.05L1101.91,2049.87L1101.74,2049.68L1101.58,2049.49L1101.42,2049.31L1101.25,2049.12L1101.09,2048.93L1100.92,2048.74L1100.76,2048.54L1100.59,2048.36L1100.43,2048.16L1100.26,2047.97L1100.1,2047.77L1099.77,2047.39L1099.43,2047L1099.1,2046.61L1098.77,2046.21L1098.44,2045.81L1098.11,2045.41L1097.77,2045.01L1097.43,2044.6L1097.1,2044.19L1096.76,2043.79L1096.43,2043.37L1096.09,2042.96L1095.75,2042.54L1095.42,2042.12L1095.08,2041.71L1094.74,2041.28L1094.4,2040.86L1094.06,2040.43L1093.72,2040L1093.38,2039.57L1093.04,2039.14L1092.7,2038.71L1092.36,2038.27L1092.02,2037.84L1091.68,2037.4L1091.34,2036.96L1091,2036.52L1090.65,2036.07L1090.31,2035.63L1089.97,2035.18L1089.63,2034.74L1089.29,2034.28L1088.94,2033.83L1088.6,2033.38L1088.26,2032.93L1087.91,2032.48L1087.57,2032.02L1087.23,2031.56L1086.89,2031.11L1086.55,2030.65L1086.2,2030.19L1085.86,2029.73L1085.52,2029.27L1085.17,2028.8L1084.83,2028.34L1084.49,2027.88L1084.15,2027.41L1083.81,2026.95L1083.47,2026.48L1083.13,2026.01L1082.79,2025.55L1082.45,2025.08L1082.11,2024.61L1081.77,2024.14L1081.43,2023.68L1081.09,2023.21L1080.75,2022.74L1080.41,2022.27L1080.08,2021.8L1079.74,2021.33L1079.4,2020.86L1079.07,2020.39L1078.73,2019.92L1078.4,2019.45L1078.06,2018.98L1077.73,2018.5L1077.39,2018.03L1077.06,2017.57L1076.73,2017.1L1076.4,2016.63L1076.07,2016.16L1075.74,2015.69L1075.41,2015.22L1075.09,2014.75L1074.76,2014.28L1074.43,2013.82L1074.11,2013.35L1073.79,2012.88L1073.46,2012.42L1073.14,2011.96L1072.82,2011.49L1072.5,2011.03L1072.18,2010.57L1071.86,2010.11L1071.54,2009.65L1071.23,2009.19L1070.91,2008.73L1070.6,2008.27L1070.29,2007.82L1069.97,2007.36L1069.66,2006.91L1069.36,2006.45L1069.05,2006.01L1068.74,2005.56L1068.44,2005.1L1068.13,2004.66L1067.83,2004.21L1067.53,2003.77L1067.23,2003.33L1066.64,2002.45L1066.05,2001.57L1065.47,2000.71L1064.89,1999.85L1064.32,1999L1063.76,1998.16L1063.2,1997.32L1062.65,1996.5L1062.11,1995.68L1061.58,1994.88L1061.05,1994.08L1060.53,1993.3L1060.02,1992.53L1059.52,1991.76L1059.02,1991.01L1058.54,1990.27L1058.06,1989.54L1057.6,1988.83L1057.14,1988.13L1056.69,1987.44L1056.25,1986.76L1055.82,1986.1L1055.4,1985.46L1054.99,1984.83L1054.59,1984.21L1054.21,1983.61L1053.83,1983.02L1053.46,1982.45L1053.11,1981.9L1052.77,1981.37L1052.43,1980.85L1052.11,1980.35L1051.81,1979.87L1051.51,1979.4L1051.23,1978.96L1050.95,1978.53L1050.45,1977.74L1050,1977.03L1049.6,1976.4L1049.26,1975.87L1048.98,1975.41L1048.76,1975.06L1048.59,1974.8L1048.46,1974.59L1047.5,1972.73L913.686,1649.09L913.058,1647.13L912.761,1645.09L912.804,1643.02L913.186,1641L913.896,1639.06L914.915,1637.27L990.087,1527.2L991.416,1525.57L992.999,1524.19L994.792,1523.09L996.745,1522.3ZM925.237,1644.32L1059.06,1967.95L1059.18,1968.16L1059.34,1968.41L1059.56,1968.76L1059.84,1969.2L1060.17,1969.73L1060.56,1970.34L1061,1971.04L1061.5,1971.82L1061.77,1972.24L1062.05,1972.68L1062.34,1973.14L1062.64,1973.61L1062.96,1974.11L1063.29,1974.62L1063.62,1975.14L1063.98,1975.69L1064.34,1976.25L1064.71,1976.83L1065.09,1977.42L1065.49,1978.03L1065.89,1978.66L1066.31,1979.3L1066.73,1979.95L1067.16,1980.62L1067.61,1981.3L1068.06,1981.99L1068.52,1982.7L1068.99,1983.42L1069.47,1984.15L1069.96,1984.89L1070.46,1985.65L1070.96,1986.41L1071.48,1987.19L1072,1987.98L1072.53,1988.77L1073.06,1989.58L1073.6,1990.39L1074.15,1991.22L1074.71,1992.05L1075.27,1992.89L1075.84,1993.74L1076.42,1994.59L1077,1995.45L1077.59,1996.32L1077.88,1996.76L1078.18,1997.2L1078.48,1997.64L1078.78,1998.08L1079.08,1998.52L1079.38,1998.96L1079.68,1999.41L1079.99,1999.86L1080.29,2000.3L1080.6,2000.75L1080.91,2001.2L1081.22,2001.65L1081.53,2002.1L1081.84,2002.56L1082.15,2003.01L1082.46,2003.47L1082.78,2003.92L1083.1,2004.38L1083.41,2004.83L1083.73,2005.29L1084.05,2005.75L1084.37,2006.21L1084.69,2006.67L1085.01,2007.13L1085.33,2007.59L1085.65,2008.05L1085.97,2008.51L1086.3,2008.97L1086.62,2009.43L1086.95,2009.89L1087.28,2010.36L1087.6,2010.82L1087.93,2011.28L1088.26,2011.74L1088.58,2012.2L1088.91,2012.66L1089.24,2013.13L1089.57,2013.59L1089.9,2014.05L1090.23,2014.51L1090.56,2014.97L1090.89,2015.43L1091.23,2015.89L1091.56,2016.36L1091.89,2016.81L1092.22,2017.27L1092.56,2017.73L1092.89,2018.19L1093.22,2018.65L1093.56,2019.1L1093.89,2019.56L1094.23,2020.01L1094.56,2020.47L1094.89,2020.92L1095.23,2021.37L1095.56,2021.83L1095.89,2022.28L1096.23,2022.72L1096.56,2023.17L1096.9,2023.62L1097.23,2024.07L1097.56,2024.51L1097.9,2024.95L1098.23,2025.39L1098.56,2025.84L1098.9,2026.27L1099.23,2026.71L1099.56,2027.15L1099.89,2027.58L1100.23,2028.02L1100.56,2028.45L1100.89,2028.88L1101.22,2029.3L1101.55,2029.73L1101.88,2030.15L1102.21,2030.58L1102.54,2031L1102.87,2031.41L1103.19,2031.83L1103.52,2032.25L1103.85,2032.66L1104.18,2033.07L1104.5,2033.47L1104.83,2033.88L1105.15,2034.28L1105.47,2034.68L1105.8,2035.08L1106.12,2035.48L1106.44,2035.87L1106.76,2036.26L1107.08,2036.65L1107.4,2037.04L1107.71,2037.42L1108.03,2037.8L1108.35,2038.17L1108.66,2038.55L1108.98,2038.92L1109.29,2039.29L1109.6,2039.66L1109.76,2039.84L1109.91,2040.02L1110.07,2040.2L1110.22,2040.38L1110.38,2040.56L1110.53,2040.74L1110.68,2040.91L1110.84,2041.09L1110.99,2041.27L1111.14,2041.44L1111.3,2041.61L1111.45,2041.79L1111.6,2041.96L1111.75,2042.13L1111.9,2042.3L1112.06,2042.47L1112.21,2042.64L1112.36,2042.81L1112.51,2042.98L1112.66,2043.14L1112.81,2043.31L1112.96,2043.47L1113.11,2043.64L1113.25,2043.8L1113.4,2043.96L1113.55,2044.12L1113.7,2044.28L1113.85,2044.44L1113.99,2044.6L1114.14,2044.76L1114.29,2044.91L1114.43,2045.07L1114.58,2045.23L1114.72,2045.38L1114.87,2045.53L1115.01,2045.68L1115.15,2045.84L1115.3,2045.99L1115.44,2046.13L1115.58,2046.28L1115.73,2046.43L1115.87,2046.58L1116.01,2046.72L1116.15,2046.87L1116.29,2047.01L1116.43,2047.15L1116.57,2047.29L1116.71,2047.43L1116.85,2047.57L1116.99,2047.71L1117.13,2047.85L1117.27,2047.98L1117.4,2048.12L1117.54,2048.25L1117.68,2048.38L1117.81,2048.51L1117.95,2048.65L1118.08,2048.78L1118.22,2048.9L1118.35,2049.03L1118.49,2049.16L1118.62,2049.28L1118.75,2049.41L1118.89,2049.53L1119.02,2049.65L1119.15,2049.77L1119.28,2049.89L1119.41,2050.01L1119.54,2050.13L1119.67,2050.24L1119.8,2050.36L1119.93,2050.47L1120.06,2050.59L1120.19,2050.7L1120.31,2050.81L1120.44,2050.92L1120.57,2051.03L1120.69,2051.13L1120.82,2051.24L1120.94,2051.34L1121.07,2051.45L1121.19,2051.55L1121.31,2051.65L1121.44,2051.75L1121.56,2051.85L1121.68,2051.94L1121.8,2052.04L1121.92,2052.13L1122.04,2052.23L1122.16,2052.32L1122.28,2052.41L1122.4,2052.5L1122.52,2052.59L1122.63,2052.67L1122.75,2052.76L1122.87,2052.84L1122.98,2052.93L1123.1,2053.01L1123.18,2053.07L1123.27,2053.13L1123.36,2053.19L1123.44,2053.25L1123.53,2053.31L1123.61,2053.37L1123.7,2053.43L1123.79,2053.48L1123.88,2053.54L1123.96,2053.6L1124.05,2053.66L1124.14,2053.71L1124.23,2053.77L1124.32,2053.83L1124.4,2053.88L1124.49,2053.94L1124.58,2054L1124.67,2054.05L1124.76,2054.11L1124.85,2054.16L1124.94,2054.22L1125.03,2054.27L1125.12,2054.33L1125.21,2054.38L1125.31,2054.43L1125.4,2054.49L1125.49,2054.54L1125.58,2054.6L1125.67,2054.65L1125.76,2054.7L1125.86,2054.75L1125.95,2054.8L1126.04,2054.86L1126.13,2054.91L1126.23,2054.96L1126.32,2055.01L1126.41,2055.06L1126.51,2055.11L1126.6,2055.16L1126.69,2055.21L1126.79,2055.26L1126.88,2055.31L1126.98,2055.36L1127.07,2055.41L1127.17,2055.46L1127.26,2055.51L1127.36,2055.55L1127.45,2055.6L1127.55,2055.65L1127.64,2055.7L1127.74,2055.74L1127.84,2055.79L1127.93,2055.84L1128.03,2055.89L1128.13,2055.93L1128.23,2055.98L1128.32,2056.02L1128.42,2056.07L1128.52,2056.11L1128.62,2056.16L1128.71,2056.2L1128.81,2056.25L1128.91,2056.29L1129.01,2056.33L1129.11,2056.38L1129.21,2056.42L1129.31,2056.46L1129.4,2056.51L1129.5,2056.55L1129.6,2056.59L1129.7,2056.63L1129.8,2056.68L1129.9,2056.72L1130,2056.76L1130.1,2056.8L1130.2,2056.84L1130.31,2056.88L1130.41,2056.92L1130.51,2056.96L1130.61,2057L1130.71,2057.04L1130.81,2057.08L1130.91,2057.12L1131.02,2057.16L1131.12,2057.19L1131.22,2057.23L1131.32,2057.27L1131.42,2057.31L1131.53,2057.34L1131.63,2057.38L1131.73,2057.42L1131.84,2057.45L1131.94,2057.49L1132.04,2057.53L1132.15,2057.56L1132.25,2057.6L1132.35,2057.63L1132.46,2057.67L1132.56,2057.7L1132.67,2057.74L1132.77,2057.77L1132.88,2057.8L1132.98,2057.84L1133.08,2057.87L1133.3,2057.94L1133.51,2058L1133.72,2058.07L1133.93,2058.13L1134.14,2058.19L1134.35,2058.25L1134.57,2058.31L1134.78,2058.37L1134.99,2058.43L1135.21,2058.49L1135.42,2058.54L1135.64,2058.6L1135.86,2058.65L1136.07,2058.7L1136.29,2058.76L1136.51,2058.81L1136.73,2058.86L1136.94,2058.91L1137.16,2058.95L1137.38,2059L1137.6,2059.05L1137.82,2059.09L1138.04,2059.14L1138.26,2059.18L1138.48,2059.22L1138.7,2059.26L1138.93,2059.3L1139.15,2059.34L1139.37,2059.38L1139.59,2059.41L1139.82,2059.45L1140.04,2059.48L1140.27,2059.52L1140.49,2059.55L1140.71,2059.58L1140.94,2059.61L1141.16,2059.64L1141.39,2059.67L1141.61,2059.7L1141.84,2059.73L1142.07,2059.75L1142.29,2059.78L1142.52,2059.8L1142.74,2059.82L1142.97,2059.84L1143.2,2059.87L1143.43,2059.88L1143.65,2059.9L1143.88,2059.92L1144.11,2059.94L1144.34,2059.95L1144.57,2059.97L1144.79,2059.98L1145.02,2059.99L1145.25,2060.01L1145.48,2060.02L1145.71,2060.03L1145.94,2060.03L1146.17,2060.04L1146.39,2060.05L1146.62,2060.06L1146.85,2060.06L1147.08,2060.06L1147.31,2060.07L1147.54,2060.07L1147.77,2060.07L1148,2060.07L1148.23,2060.07L1148.46,2060.07L1148.69,2060.06L1148.92,2060.06L1149.15,2060.05L1149.38,2060.05L1149.61,2060.04L1149.84,2060.03L1150.07,2060.02L1150.3,2060.01L1150.53,2060L1150.76,2059.99L1150.99,2059.98L1151.22,2059.97L1151.45,2059.95L1151.68,2059.93L1151.91,2059.92L1152.14,2059.9L1152.37,2059.88L1152.6,2059.86L1152.82,2059.84L1153.05,2059.82L1153.28,2059.8L1153.51,2059.77L1153.74,2059.75L1153.97,2059.72L1154.2,2059.7L1154.42,2059.67L1154.65,2059.64L1154.88,2059.61L1155.11,2059.58L1155.33,2059.55L1155.56,2059.52L1155.79,2059.48L1156.02,2059.45L1156.24,2059.41L1156.47,2059.38L1156.69,2059.34L1156.92,2059.3L1157.14,2059.26L1157.37,2059.22L1157.59,2059.18L1157.82,2059.14L1158.04,2059.1L1158.27,2059.05L1158.49,2059.01L1158.71,2058.96L1158.94,2058.92L1159.16,2058.87L1159.38,2058.82L1159.61,2058.77L1159.83,2058.72L1160.05,2058.67L1160.27,2058.62L1160.49,2058.56L1160.71,2058.51L1160.93,2058.45L1161.15,2058.4L1161.37,2058.34L1161.59,2058.28L1161.81,2058.22L1162.02,2058.16L1162.24,2058.1L1162.46,2058.04L1162.67,2057.98L1162.89,2057.91L1163.11,2057.85L1163.32,2057.78L1163.54,2057.72L1163.75,2057.65L1163.96,2057.58L1164.18,2057.51L1164.39,2057.44L1164.6,2057.37L1164.82,2057.3L1165.03,2057.22L1165.24,2057.15L1165.45,2057.07L1165.66,2057L1165.87,2056.92L1166.07,2056.84L1166.28,2056.76L1166.49,2056.68L1166.7,2056.6L1166.9,2056.52L1167.11,2056.44L1167.31,2056.36L1167.52,2056.27L1167.72,2056.19L1167.92,2056.1L1168.12,2056.01L1168.33,2055.93L1168.53,2055.84L1168.73,2055.75L1168.93,2055.66L1169.13,2055.56L1169.33,2055.47L1169.52,2055.38L1169.72,2055.28L1169.82,2055.23L1169.92,2055.19L1170.01,2055.14L1170.11,2055.09L1170.21,2055.04L1170.31,2054.99L1170.4,2054.94L1170.5,2054.89L1170.6,2054.84L1170.69,2054.8L1170.79,2054.74L1170.89,2054.69L1170.98,2054.64L1171.08,2054.59L1171.17,2054.54L1171.27,2054.49L1171.36,2054.44L1171.46,2054.39L1171.55,2054.34L1171.65,2054.28L1171.74,2054.23L1171.84,2054.18L1171.93,2054.13L1172.02,2054.07L1172.12,2054.02L1172.21,2053.97L1172.31,2053.91L1172.4,2053.86L1172.49,2053.8L1172.58,2053.75L1172.67,2053.7L1172.77,2053.64L1172.86,2053.59L1172.95,2053.53L1173.04,2053.48L1173.13,2053.42L1173.23,2053.36L1173.32,2053.31L1173.41,2053.25L1173.5,2053.2L1173.59,2053.14L1173.68,2053.08L1173.77,2053.02L1173.86,2052.97L1173.95,2052.91L1174.04,2052.85L1174.12,2052.79L1174.21,2052.73L1174.3,2052.68L1174.39,2052.62L1174.48,2052.56L1174.57,2052.5L1174.65,2052.44L1174.74,2052.38L1174.83,2052.32L1174.91,2052.26L1175,2052.2L1175.09,2052.14L1175.17,2052.07L1175.26,2052.01L1175.35,2051.95L1175.43,2051.89L1175.52,2051.83L1175.6,2051.77L1175.69,2051.7L1175.77,2051.64L1175.86,2051.58L1175.94,2051.52L1176.02,2051.45L1176.11,2051.39L1176.19,2051.33L1176.27,2051.26L1176.36,2051.2L1176.44,2051.13L1176.52,2051.07L1176.6,2051L1176.93,2050.74L1177.27,2050.47L1177.61,2050.2L1177.96,2049.92L1178.31,2049.64L1178.66,2049.36L1179.02,2049.06L1179.39,2048.77L1179.76,2048.47L1180.13,2048.16L1180.51,2047.85L1180.9,2047.54L1181.28,2047.22L1181.68,2046.89L1182.07,2046.56L1182.48,2046.23L1182.88,2045.89L1183.29,2045.55L1183.7,2045.21L1184.12,2044.86L1184.55,2044.5L1184.97,2044.14L1185.4,2043.78L1185.84,2043.41L1186.28,2043.04L1186.72,2042.67L1187.16,2042.29L1187.61,2041.9L1188.07,2041.52L1188.53,2041.13L1188.99,2040.73L1189.45,2040.33L1189.92,2039.93L1190.39,2039.52L1190.87,2039.11L1191.34,2038.7L1191.83,2038.28L1192.31,2037.86L1192.8,2037.44L1193.29,2037.01L1193.78,2036.58L1194.28,2036.14L1194.78,2035.7L1195.29,2035.26L1195.79,2034.81L1196.3,2034.36L1196.81,2033.91L1197.33,2033.45L1197.85,2033L1198.37,2032.53L1198.89,2032.07L1199.42,2031.6L1199.95,2031.13L1200.48,2030.65L1201.01,2030.17L1201.55,2029.69L1202.08,2029.21L1202.62,2028.72L1203.17,2028.23L1203.71,2027.74L1204.26,2027.24L1204.81,2026.74L1205.36,2026.24L1205.91,2025.74L1206.47,2025.23L1207.03,2024.72L1207.58,2024.21L1208.14,2023.69L1208.71,2023.17L1209.27,2022.65L1209.84,2022.13L1210.41,2021.61L1210.98,2021.08L1211.55,2020.55L1212.12,2020.02L1212.69,2019.48L1213.27,2018.95L1213.84,2018.41L1214.42,2017.87L1215,2017.32L1215.58,2016.78L1216.16,2016.23L1216.75,2015.68L1217.33,2015.13L1217.91,2014.57L1218.5,2014.02L1219.08,2013.46L1219.67,2012.9L1220.26,2012.34L1220.85,2011.78L1221.44,2011.21L1222.03,2010.64L1222.62,2010.07L1223.21,2009.5L1223.8,2008.93L1224.39,2008.36L1224.99,2007.78L1225.58,2007.21L1226.17,2006.63L1226.77,2006.05L1227.36,2005.47L1227.95,2004.88L1228.55,2004.3L1229.14,2003.71L1229.74,2003.12L1230.33,2002.54L1230.92,2001.95L1231.52,2001.36L1232.11,2000.77L1232.71,2000.17L1233.3,1999.58L1233.89,1998.98L1234.49,1998.39L1235.08,1997.79L1235.67,1997.19L1236.26,1996.59L1236.85,1995.99L1237.44,1995.39L1238.03,1994.79L1238.62,1994.19L1239.21,1993.58L1239.8,1992.98L1240.38,1992.37L1240.97,1991.77L1241.55,1991.16L1242.13,1990.56L1242.42,1990.25L1242.72,1989.95L1243.01,1989.64L1243.3,1989.34L1243.59,1989.04L1243.88,1988.73L1244.17,1988.43L1244.46,1988.12L1244.75,1987.82L1245.04,1987.52L1245.32,1987.21L1245.61,1986.91L1245.9,1986.6L1246.19,1986.3L1246.47,1985.99L1246.76,1985.69L1247.05,1985.38L1247.33,1985.08L1247.62,1984.77L1247.9,1984.47L1248.19,1984.16L1248.47,1983.86L1248.76,1983.55L1249.04,1983.24L1249.32,1982.94L1249.61,1982.63L1249.89,1982.33L1250.17,1982.02L1250.45,1981.72L1250.73,1981.41L1251.01,1981.11L1251.29,1980.8L1251.57,1980.49L1251.85,1980.19L1252.13,1979.88L1252.41,1979.58L1252.69,1979.27L1252.96,1978.97L1253.24,1978.66L1253.52,1978.36L1253.79,1978.05L1254.07,1977.74L1254.34,1977.44L1254.62,1977.13L1254.89,1976.83L1255.16,1976.52L1255.44,1976.22L1255.71,1975.91L1255.98,1975.61L1256.25,1975.3L1256.52,1975L1256.79,1974.69L1257.06,1974.39L1257.33,1974.08L1257.6,1973.78L1257.87,1973.48L1258.13,1973.17L1258.4,1972.87L1258.67,1972.56L1258.93,1972.26L1259.2,1971.96L1259.46,1971.65L1259.72,1971.35L1259.99,1971.05L1260.25,1970.74L1260.51,1970.44L1260.77,1970.14L1261.03,1969.83L1261.29,1969.53L1261.55,1969.23L1261.8,1968.93L1262.06,1968.62L1262.32,1968.32L1262.57,1968.02L1262.83,1967.72L1263.08,1967.42L1263.34,1967.12L1263.59,1966.82L1263.84,1966.51L1264.09,1966.21L1264.34,1965.91L1264.59,1965.61L1264.84,1965.31L1265.09,1965.01L1265.34,1964.71L1265.59,1964.41L1265.83,1964.12L1266.08,1963.82L1266.32,1963.52L1266.57,1963.22L1266.81,1962.92L1267.05,1962.62L1267.29,1962.33L1267.53,1962.03L1267.77,1961.73L1268.01,1961.44L1268.25,1961.14L1268.48,1960.84L1268.72,1960.55L1268.96,1960.25L1269.19,1959.96L1269.42,1959.66L1269.66,1959.37L1269.89,1959.07L1270.12,1958.78L1270.35,1958.49L1270.58,1958.19L1270.81,1957.9L1271.03,1957.61L1271.26,1957.31L1271.49,1957.02L1271.71,1956.73L1271.93,1956.44L1272.15,1956.15L1272.38,1955.86L1272.6,1955.57L1272.82,1955.28L1273.04,1954.99L1273.25,1954.7L1273.47,1954.41L1273.68,1954.12L1273.9,1953.84L1274.11,1953.55L1274.33,1953.26L1274.54,1952.97L1274.75,1952.69L1274.96,1952.4L1275.17,1952.12L1275.38,1951.83L1275.58,1951.55L1275.79,1951.26L1275.99,1950.98L1276.19,1950.69L1276.4,1950.41L1276.6,1950.13L1276.8,1949.85L1277,1949.57L1277.19,1949.29L1277.39,1949L1277.59,1948.72L1277.78,1948.44L1277.98,1948.16L1278.17,1947.89L1278.36,1947.61L1278.55,1947.33L1278.74,1947.05L1278.92,1946.78L1279.11,1946.5L1279.3,1946.23L1279.48,1945.95L1279.66,1945.67L1279.85,1945.4L1280.03,1945.13L1280.21,1944.85L1280.38,1944.58L1280.56,1944.31L1280.74,1944.04L1280.91,1943.77L1281.09,1943.5L1281.26,1943.23L1281.43,1942.96L1281.6,1942.69L1281.77,1942.42L1281.93,1942.15L1282.1,1941.89L1282.27,1941.62L1282.43,1941.35L1282.59,1941.09L1282.75,1940.82L1282.91,1940.56L1283.07,1940.3L1283.23,1940.03L1283.38,1939.77L1283.54,1939.51L1283.69,1939.25L1283.84,1938.99L1283.99,1938.73L1284.14,1938.47L1284.29,1938.21L1284.43,1937.95L1284.58,1937.7L1284.72,1937.44L1284.87,1937.18L1285.01,1936.93L1285.15,1936.67L1285.28,1936.42L1285.42,1936.17L1285.56,1935.91L1285.69,1935.66L1285.82,1935.41L1285.95,1935.16L1286.08,1934.91L1286.21,1934.66L1286.34,1934.41L1286.46,1934.17L1286.59,1933.92L1286.71,1933.67L1286.83,1933.43L1286.95,1933.18L1287.07,1932.94L1287.18,1932.7L1287.3,1932.45L1287.41,1932.21L1287.53,1931.97L1287.64,1931.73L1287.75,1931.49L1287.85,1931.25L1287.96,1931.02L1288.06,1930.78L1288.17,1930.54L1288.27,1930.31L1288.37,1930.07L1288.47,1929.84L1288.56,1929.6L1288.61,1929.49L1288.66,1929.37L1288.7,1929.26L1288.75,1929.14L1288.8,1929.02L1288.84,1928.91L1288.89,1928.79L1288.93,1928.68L1288.98,1928.56L1289.02,1928.45L1289.07,1928.34L1289.11,1928.22L1289.15,1928.11L1289.2,1927.99L1289.24,1927.88L1289.28,1927.77L1289.32,1927.65L1289.36,1927.54L1289.4,1927.43L1289.44,1927.32L1289.48,1927.2L1289.52,1927.09L1289.56,1926.98L1289.6,1926.87L1289.64,1926.76L1289.68,1926.65L1289.71,1926.54L1289.75,1926.42L1289.79,1926.31L1289.82,1926.2L1289.86,1926.09L1289.89,1925.98L1289.93,1925.87L1289.96,1925.76L1290,1925.65L1290.03,1925.55L1290.07,1925.44L1290.1,1925.33L1290.13,1925.22L1290.16,1925.11L1290.19,1925L1290.22,1924.9L1290.26,1924.79L1290.29,1924.68L1290.32,1924.58L1290.35,1924.47L1290.37,1924.36L1290.4,1924.26L1290.43,1924.15L1290.46,1924.04L1290.49,1923.94L1290.51,1923.83L1290.54,1923.73L1290.56,1923.62L1290.59,1923.52L1290.62,1923.41L1290.64,1923.31L1290.66,1923.2L1290.69,1923.1L1290.71,1923L1290.73,1922.89L1290.76,1922.79L1290.78,1922.69L1290.8,1922.58L1290.82,1922.48L1290.84,1922.38L1290.86,1922.28L1290.88,1922.18L1290.9,1922.07L1290.92,1921.97L1290.94,1921.87L1290.96,1921.77L1290.98,1921.67L1290.99,1921.57L1291.01,1921.47L1291.03,1921.37L1291.04,1921.27L1291.06,1921.17L1291.07,1921.07L1291.09,1920.97L1291.1,1920.88L1291.11,1920.78L1291.13,1920.68L1291.14,1920.58L1291.15,1920.48L1291.16,1920.38L1291.17,1920.29L1291.18,1920.19L1291.2,1920.1L1291.21,1920L1291.21,1919.9L1291.22,1919.81L1291.23,1919.71L1291.24,1919.62L1291.25,1919.52L1291.26,1919.42L1291.26,1919.33L1291.27,1919.23L1291.28,1919.14L1291.28,1919.04L1291.29,1918.95L1291.29,1918.86L1291.3,1918.76L1291.3,1918.67L1291.3,1918.57L1291.31,1918.48L1291.31,1918.38L1291.31,1918.29L1291.32,1918.2L1291.32,1918.1L1291.32,1918.01L1291.32,1917.92L1291.32,1917.82L1291.32,1917.73L1291.32,1917.64L1291.32,1917.54L1291.32,1917.45L1291.32,1917.36L1291.32,1917.27L1291.31,1917.17L1291.31,1917.08L1291.31,1916.99L1291.31,1916.9L1291.3,1916.81L1291.3,1916.71L1291.29,1916.62L1291.29,1916.53L1291.28,1916.44L1291.28,1916.35L1291.27,1916.26L1291.26,1916.17L1291.26,1916.08L1291.25,1915.99L1291.24,1915.89L1291.24,1915.8L1291.23,1915.71L1291.22,1915.62L1291.21,1915.53L1291.2,1915.44L1291.19,1915.35L1291.18,1915.26L1291.17,1915.17L1291.16,1915.08L1291.15,1915L1291.13,1914.91L1291.12,1914.82L1291.11,1914.73L1291.1,1914.64L1291.09,1914.55L1291.07,1914.46L1291.06,1914.37L1291.04,1914.28L1291.03,1914.2L1291.01,1914.11L1291,1914.02L1290.98,1913.93L1290.97,1913.84L1290.95,1913.76L1290.93,1913.67L1290.92,1913.58L1290.9,1913.49L1290.88,1913.41L1290.86,1913.32L1290.84,1913.23L1290.83,1913.14L1290.81,1913.06L1290.79,1912.97L1290.77,1912.88L1290.75,1912.8L1290.72,1912.71L1290.7,1912.63L1290.68,1912.54L1290.66,1912.45L1290.64,1912.37L1290.62,1912.28L1290.59,1912.2L1290.57,1912.11L1290.55,1912.03L1290.52,1911.94L1290.5,1911.85L1290.47,1911.77L1290.45,1911.68L1290.42,1911.6L1290.4,1911.52L1290.37,1911.43L1290.34,1911.35L1290.32,1911.26L1290.29,1911.18L1290.26,1911.09L1290.23,1911.01L1290.21,1910.92L1290.18,1910.84L1290.15,1910.76L1290.12,1910.67L1290.09,1910.59L1290.06,1910.51L1290.03,1910.42L1290,1910.34L1289.97,1910.26L1289.94,1910.17L1289.9,1910.09L1289.87,1910.01L1289.84,1909.92L1289.81,1909.84L1289.78,1909.76L1289.74,1909.68L1289.71,1909.6L1289.67,1909.51L1289.64,1909.43L1289.61,1909.35L1289.57,1909.27L1289.53,1909.18L1289.5,1909.1L1289.46,1909.02L1289.43,1908.94L1289.39,1908.86L1289.35,1908.78L1289.32,1908.7L1289.28,1908.62L1289.24,1908.54L1289.2,1908.45L1289.16,1908.37L1289.12,1908.29L1289.08,1908.21L1289.05,1908.13L1289.01,1908.05L1288.96,1907.97L1288.92,1907.89L1288.88,1907.81L1288.84,1907.73L1288.8,1907.65L1288.76,1907.57L1288.72,1907.49L1288.67,1907.41L1288.63,1907.33L1288.59,1907.25L1288.54,1907.17L1288.5,1907.1L1288.46,1907.02L1288.41,1906.94L1288.37,1906.86L1288.32,1906.78L1288.28,1906.7L1288.23,1906.62L1288.18,1906.55L1288.14,1906.47L1288.09,1906.39L1288.04,1906.31L1288,1906.23L1287.95,1906.15L1287.9,1906.08L1287.85,1906L1287.81,1905.92L1287.76,1905.85L1287.71,1905.77L1287.66,1905.69L1287.61,1905.61L1287.56,1905.54L1287.51,1905.46L1287.46,1905.38L1287.41,1905.31L1287.35,1905.23L1287.3,1905.15L1287.25,1905.08L1287.2,1905L1287.15,1904.92L1287.09,1904.85L1287.04,1904.77L1286.99,1904.69L1286.93,1904.62L1286.88,1904.54L1286.83,1904.47L1286.77,1904.39L1286.72,1904.32L1286.66,1904.24L1286.61,1904.16L1286.55,1904.09L1286.49,1904.01L1286.44,1903.94L1286.38,1903.86L1286.32,1903.79L1286.27,1903.71L1286.21,1903.64L1286.15,1903.57L1286.03,1903.42L1285.92,1903.27L1285.8,1903.12L1285.68,1902.97L1285.56,1902.82L1285.43,1902.68L1285.31,1902.53L1285.19,1902.38L1285.06,1902.24L1284.93,1902.09L1284.81,1901.95L1284.68,1901.8L1284.55,1901.66L1284.42,1901.51L1284.28,1901.37L1284.15,1901.23L1284.02,1901.08L1283.88,1900.94L1283.74,1900.8L1283.61,1900.65L1283.47,1900.51L1283.33,1900.37L1283.19,1900.23L1283.04,1900.09L1282.9,1899.95L1282.76,1899.81L1282.61,1899.67L1282.47,1899.53L1282.32,1899.39L1282.17,1899.25L1282.02,1899.11L1281.87,1898.97L1281.72,1898.83L1281.57,1898.7L1281.41,1898.56L1281.26,1898.42L1281.11,1898.29L1280.95,1898.15L1280.79,1898.01L1280.63,1897.88L1280.48,1897.74L1280.32,1897.61L1280.15,1897.47L1279.99,1897.34L1279.83,1897.2L1279.67,1897.07L1279.5,1896.93L1279.34,1896.8L1279.17,1896.67L1279,1896.54L1278.83,1896.4L1278.66,1896.27L1278.49,1896.14L1278.32,1896.01L1278.15,1895.88L1277.98,1895.75L1277.8,1895.61L1277.63,1895.48L1277.45,1895.35L1277.28,1895.22L1277.1,1895.09L1276.92,1894.96L1276.74,1894.84L1276.56,1894.71L1276.38,1894.58L1276.2,1894.45L1276.01,1894.32L1275.83,1894.19L1275.65,1894.07L1275.46,1893.94L1275.28,1893.81L1275.09,1893.68L1274.9,1893.56L1274.71,1893.43L1274.52,1893.31L1274.33,1893.18L1274.14,1893.05L1273.95,1892.93L1273.76,1892.8L1273.57,1892.68L1273.37,1892.55L1273.18,1892.43L1272.98,1892.31L1272.78,1892.18L1272.59,1892.06L1272.39,1891.93L1272.19,1891.81L1271.99,1891.69L1271.79,1891.57L1271.59,1891.44L1271.39,1891.32L1271.19,1891.2L1270.98,1891.08L1270.78,1890.96L1270.58,1890.84L1270.37,1890.72L1270.16,1890.59L1269.96,1890.47L1269.75,1890.35L1269.54,1890.23L1269.33,1890.11L1269.12,1889.99L1268.91,1889.87L1268.7,1889.75L1268.49,1889.63L1268.28,1889.52L1268.07,1889.4L1267.86,1889.28L1267.64,1889.16L1267.43,1889.04L1267.21,1888.92L1267,1888.81L1266.78,1888.69L1266.56,1888.57L1266.34,1888.45L1266.13,1888.34L1265.91,1888.22L1265.69,1888.1L1265.47,1887.99L1265.25,1887.87L1265.03,1887.76L1264.8,1887.64L1264.58,1887.52L1264.36,1887.41L1264.13,1887.29L1263.91,1887.18L1263.68,1887.06L1263.46,1886.95L1263.23,1886.83L1263.01,1886.72L1262.78,1886.61L1262.55,1886.49L1262.33,1886.38L1262.1,1886.26L1261.87,1886.15L1261.64,1886.04L1261.41,1885.92L1261.18,1885.81L1260.95,1885.7L1260.71,1885.58L1260.48,1885.47L1260.25,1885.36L1260.02,1885.25L1259.78,1885.13L1259.55,1885.02L1259.31,1884.91L1259.08,1884.8L1258.84,1884.69L1258.61,1884.58L1258.37,1884.46L1258.13,1884.35L1257.9,1884.24L1257.66,1884.13L1257.42,1884.02L1257.18,1883.91L1256.94,1883.8L1256.7,1883.69L1256.46,1883.58L1255.98,1883.36L1255.5,1883.14L1255.02,1882.92L1254.53,1882.7L1254.05,1882.48L1253.56,1882.26L1253.07,1882.04L1252.58,1881.83L1252.08,1881.61L1251.59,1881.39L1251.09,1881.18L1250.6,1880.96L1250.1,1880.75L1249.6,1880.53L1249.1,1880.32L1248.6,1880.1L1248.1,1879.89L1247.6,1879.67L1247.09,1879.46L1246.59,1879.25L1246.08,1879.04L1245.58,1878.82L1245.07,1878.61L1244.56,1878.4L1244.05,1878.18L1243.54,1877.97L1243.03,1877.76L1242.52,1877.55L1242.01,1877.34L1241.5,1877.13L1240.99,1876.91L1239.96,1876.49L1238.94,1876.07L1237.91,1875.65L1236.88,1875.23L1235.85,1874.81L1233.79,1873.96L1232.76,1873.54L1231.73,1873.12L1230.7,1872.7L1229.67,1872.28L1229.16,1872.06L1228.65,1871.85L1228.14,1871.64L1227.62,1871.43L1227.11,1871.21L1226.6,1871L1226.09,1870.79L1225.59,1870.58L1225.08,1870.36L1224.57,1870.15L1224.06,1869.93L1223.56,1869.72L1223.05,1869.51L1222.55,1869.29L1222.04,1869.08L1221.54,1868.86L1221.04,1868.64L1220.54,1868.43L1220.04,1868.21L1219.54,1867.99L1219.04,1867.78L1218.55,1867.56L1218.05,1867.34L1217.56,1867.12L1217.07,1866.9L1216.58,1866.68L1216.09,1866.46L1215.6,1866.24L1215.11,1866.02L1214.63,1865.8L1214.14,1865.58L1213.9,1865.46L1213.66,1865.35L1213.42,1865.24L1213.18,1865.13L1212.94,1865.02L1212.7,1864.9L1212.46,1864.79L1212.22,1864.68L1211.99,1864.57L1211.75,1864.45L1211.51,1864.34L1211.28,1864.23L1211.04,1864.12L1210.8,1864L1210.57,1863.89L1210.33,1863.78L1210.1,1863.66L1209.87,1863.55L1209.63,1863.43L1209.4,1863.32L1209.17,1863.21L1208.93,1863.09L1208.7,1862.98L1208.47,1862.86L1208.24,1862.75L1208.01,1862.63L1207.78,1862.52L1207.55,1862.4L1207.33,1862.29L1207.1,1862.17L1206.87,1862.05L1206.64,1861.94L1206.42,1861.82L1206.19,1861.7L1205.97,1861.59L1205.74,1861.47L1205.52,1861.35L1205.3,1861.23L1205.07,1861.12L1204.85,1861L1204.63,1860.88L1204.41,1860.76L1204.19,1860.64L1203.97,1860.53L1203.75,1860.41L1203.53,1860.29L1203.31,1860.17L1203.09,1860.05L1202.88,1859.93L1202.66,1859.81L1202.45,1859.69L1202.23,1859.57L1202.02,1859.45L1201.8,1859.33L1201.59,1859.21L1201.38,1859.09L1201.17,1858.96L1200.95,1858.84L1200.75,1858.72L1200.54,1858.6L1200.33,1858.48L1200.12,1858.35L1199.91,1858.23L1199.7,1858.11L1199.5,1857.99L1199.29,1857.86L1199.09,1857.74L1198.88,1857.61L1198.68,1857.49L1198.48,1857.37L1198.28,1857.24L1198.07,1857.12L1197.87,1856.99L1197.67,1856.87L1197.47,1856.74L1197.28,1856.61L1197.08,1856.49L1196.88,1856.36L1196.69,1856.23L1196.49,1856.11L1196.3,1855.98L1196.1,1855.85L1195.91,1855.73L1195.72,1855.6L1195.53,1855.47L1195.34,1855.34L1195.15,1855.21L1194.96,1855.08L1194.77,1854.95L1194.58,1854.82L1193.72,1854.23L1192.84,1853.61L1191.95,1852.99L1191.03,1852.35L1190.11,1851.7L1189.16,1851.05L1188.2,1850.37L1187.22,1849.69L1186.23,1849L1185.23,1848.29L1184.21,1847.58L1183.18,1846.85L1182.13,1846.12L1181.07,1845.37L1180,1844.62L1178.92,1843.86L1177.82,1843.08L1176.72,1842.3L1175.6,1841.52L1174.47,1840.72L1173.33,1839.91L1172.19,1839.1L1171.03,1838.29L1169.86,1837.46L1168.69,1836.63L1167.5,1835.79L1165.11,1834.1L1162.69,1832.38L1160.25,1830.65L1157.78,1828.9L1155.3,1827.13L1152.79,1825.35L1150.28,1823.57L1147.75,1821.77L1145.22,1819.97L1142.68,1818.16L1140.14,1816.35L1137.61,1814.54L1135.08,1812.74L1132.55,1810.93L1130.04,1809.14L1127.55,1807.36L1125.07,1805.59L1122.61,1803.83L1120.17,1802.09L1117.76,1800.37L1115.38,1798.67L1113.04,1796.99L1110.73,1795.33L1108.45,1793.71L1106.23,1792.11L1104.04,1790.55L1101.9,1789.02L1097.79,1786.07L1093.9,1783.28L1090.27,1780.67L1086.91,1778.27L1083.86,1776.07L1081.13,1774.12L1078.76,1772.41L1076.77,1770.98L1074,1768.99L1073.03,1768.3L1030.32,1699.27L1068.63,1699.63L1145.74,1612.97L1102.33,1538.28L1000.41,1534.25L925.237,1644.32Z" style="fill:rgb(0,0,255);"/>
                    </g>
                    <g transform="matrix(1,0,0,1,-112.43,-1038.49)">
                        <path d="M1126.03,1574.04L1144.98,1564.26L1157.49,1585.82L1139.88,1596.1L1126.03,1574.04Z" style="fill:rgb(192,192,192);"/>
                        <path d="M1122.21,1566.64L1141.16,1556.85L1141.42,1556.72L1141.68,1556.61L1141.95,1556.5L1142.22,1556.39L1142.49,1556.3L1142.77,1556.22L1143.05,1556.15L1143.33,1556.09L1143.61,1556.04L1143.9,1555.99L1144.18,1555.96L1144.47,1555.94L1144.76,1555.93L1145.05,1555.92L1145.34,1555.93L1145.62,1555.95L1145.91,1555.98L1146.2,1556.01L1146.48,1556.06L1146.76,1556.12L1147.04,1556.18L1147.32,1556.26L1147.6,1556.34L1147.87,1556.44L1148.14,1556.54L1148.4,1556.66L1148.66,1556.78L1148.92,1556.91L1149.17,1557.05L1149.42,1557.2L1149.66,1557.36L1149.89,1557.52L1150.12,1557.7L1150.35,1557.88L1150.57,1558.07L1150.78,1558.27L1150.98,1558.47L1151.18,1558.68L1151.37,1558.9L1151.55,1559.12L1151.72,1559.35L1151.89,1559.59L1152.04,1559.83L1152.19,1560.08L1164.69,1581.64L1164.84,1581.9L1164.97,1582.15L1165.09,1582.42L1165.2,1582.68L1165.31,1582.95L1165.4,1583.23L1165.49,1583.51L1165.57,1583.79L1165.63,1584.07L1165.69,1584.36L1165.73,1584.64L1165.77,1584.93L1165.8,1585.22L1165.81,1585.51L1165.82,1585.8L1165.81,1586.09L1165.8,1586.38L1165.78,1586.67L1165.74,1586.96L1165.7,1587.24L1165.64,1587.53L1165.58,1587.81L1165.5,1588.09L1165.42,1588.37L1165.33,1588.64L1165.22,1588.92L1165.11,1589.18L1164.99,1589.45L1164.86,1589.71L1164.72,1589.96L1164.57,1590.21L1164.41,1590.45L1164.25,1590.69L1164.07,1590.93L1163.89,1591.15L1163.7,1591.37L1163.5,1591.59L1163.3,1591.79L1163.09,1591.99L1162.87,1592.18L1162.64,1592.37L1162.41,1592.54L1162.18,1592.71L1161.93,1592.87L1161.69,1593.02L1144.08,1603.29L1143.83,1603.43L1143.57,1603.57L1143.31,1603.69L1143.04,1603.81L1142.77,1603.91L1142.49,1604.01L1142.21,1604.1L1141.93,1604.17L1141.65,1604.24L1141.36,1604.3L1141.08,1604.34L1140.79,1604.38L1140.5,1604.41L1140.21,1604.42L1139.91,1604.43L1139.62,1604.42L1139.33,1604.41L1139.04,1604.39L1138.75,1604.35L1138.47,1604.31L1138.18,1604.25L1137.89,1604.19L1137.61,1604.11L1137.34,1604.03L1137.06,1603.93L1136.79,1603.83L1136.52,1603.72L1136.25,1603.6L1135.99,1603.47L1135.74,1603.33L1135.49,1603.18L1135.24,1603.02L1135.01,1602.85L1134.77,1602.68L1134.54,1602.49L1134.32,1602.3L1134.11,1602.11L1133.9,1601.9L1133.7,1601.69L1133.51,1601.47L1133.33,1601.24L1133.15,1601.01L1132.99,1600.77L1132.83,1600.53L1118.97,1578.47L1118.82,1578.22L1118.68,1577.97L1118.54,1577.7L1118.42,1577.44L1118.31,1577.17L1118.2,1576.89L1118.1,1576.62L1118.02,1576.34L1117.94,1576.05L1117.88,1575.77L1117.82,1575.48L1117.78,1575.19L1117.74,1574.9L1117.71,1574.61L1117.7,1574.31L1117.69,1574.02L1117.7,1573.73L1117.72,1573.43L1117.74,1573.14L1117.78,1572.85L1117.83,1572.56L1117.88,1572.27L1117.95,1571.99L1118.03,1571.7L1118.12,1571.42L1118.21,1571.15L1118.32,1570.87L1118.44,1570.6L1118.56,1570.34L1118.7,1570.08L1118.84,1569.82L1119,1569.57L1119.16,1569.33L1119.33,1569.09L1119.51,1568.86L1119.69,1568.63L1119.89,1568.41L1120.09,1568.2L1120.3,1567.99L1120.52,1567.79L1120.74,1567.6L1120.97,1567.42L1121.2,1567.25L1121.45,1567.08L1121.69,1566.92L1121.95,1566.78L1122.21,1566.64ZM1139.88,1596.1L1157.49,1585.82L1144.98,1564.26L1126.03,1574.04L1139.88,1596.1Z" style="fill:rgb(0,0,255);"/>
                    </g>
                    <g transform="matrix(0.780479,0,0,0.780479,86.6825,-1294.26)">
                        <g transform="matrix(7.19569e-17,0.408723,-0.388177,-2.39856e-17,1533.14,1537.16)">
                            <path d="M1933.06,1193.16L1941.25,1039.08L2171.51,899.104L2236.24,944.577" style="fill:rgb(192,192,192);stroke:rgb(0,0,255);stroke-width:26.79px;"/>
                        </g>
                        <g transform="matrix(7.19569e-17,0.408723,-0.388177,-2.39856e-17,1513.94,1569.07)">
                            <path d="M1942.58,1202.87L1941.25,1039.08L2171.51,899.104L2236.24,944.577" style="fill:rgb(192,192,192);stroke:rgb(0,0,255);stroke-width:26.79px;"/>
                        </g>
                        <g transform="matrix(7.19569e-17,0.408723,-0.388177,-2.39856e-17,1491.6,1601.37)">
                            <path d="M1940.5,1187.96L1941.25,1039.08L2171.51,899.104L2248.9,956.354L2170.43,1001.83L2108.05,1037.97L2023.62,1086.9L2021.6,1219.8" style="fill:rgb(192,192,192);stroke:rgb(0,0,255);stroke-width:26.79px;"/>
                        </g>
                    </g>
                </g>
                <g transform="matrix(0.203987,0,0,0.300448,1981.46,1797.17)">
                    <g transform="matrix(9.93205e-17,0.56415,-0.535792,-3.31068e-17,1856.59,1572.73)">
                        <path d="M2171.51,899.104L2401.78,1039.08L2401.78,1319.04L2171.51,1459.02L1941.25,1319.04L1941.25,1039.08L2171.51,899.104Z" style="fill:rgb(192,192,192);"/>
                        <path d="M1919.58,1034.23L1921.01,1029.6L1923.32,1025.37L1926.42,1021.75L1930.17,1018.88L2160.43,878.9L2164.67,876.916L2169.2,875.902L2173.83,875.902L2178.36,876.916L2182.59,878.9L2412.86,1018.88L2416.6,1021.75L2419.7,1025.37L2422.02,1029.6L2423.45,1034.23L2423.93,1039.08L2423.93,1319.04L2423.45,1323.89L2422.02,1328.53L2419.7,1332.76L2416.6,1336.38L2412.86,1339.25L2182.59,1479.23L2178.36,1481.21L2173.83,1482.23L2169.2,1482.23L2164.67,1481.21L2160.43,1479.23L1930.17,1339.25L1926.42,1336.38L1923.32,1332.76L1921.01,1328.53L1919.58,1323.89L1919.09,1319.04L1919.09,1039.08L1919.58,1034.23ZM1941.25,1319.04L2171.51,1459.02L2401.78,1319.04L2401.78,1039.08L2171.51,899.104L1941.25,1039.08L1941.25,1319.04Z" style="fill:rgb(0,0,255);"/>
                    </g>
                    <g transform="matrix(7.19569e-17,0.408723,-0.388177,-2.39856e-17,1682.54,1910.25)">
                        <path d="M2171.51,899.104L2401.78,1039.08L2401.78,1319.04L2171.51,1459.02L1941.25,1319.04L1941.25,1039.08L2171.51,899.104Z" style="fill:rgb(192,192,192);"/>
                        <path d="M1911.33,1032.39L1913.31,1025.99L1916.51,1020.16L1920.78,1015.15L1925.96,1011.2L2156.22,871.216L2162.06,868.478L2168.32,867.078L2174.71,867.078L2180.96,868.478L2186.8,871.216L2417.07,1011.2L2422.24,1015.15L2426.52,1020.16L2429.72,1025.99L2431.69,1032.39L2432.36,1039.08L2432.36,1319.04L2431.69,1325.74L2429.72,1332.14L2426.52,1337.97L2422.24,1342.97L2417.07,1346.93L2186.8,1486.91L2180.96,1489.65L2174.71,1491.05L2168.32,1491.05L2162.06,1489.65L2156.22,1486.91L1925.96,1346.93L1920.78,1342.97L1916.51,1337.97L1913.31,1332.14L1911.33,1325.74L1910.66,1319.04L1910.66,1039.08L1911.33,1032.39ZM1941.25,1319.04L2171.51,1459.02L2401.78,1319.04L2401.78,1039.08L2171.51,899.104L1941.25,1039.08L1941.25,1319.04Z" style="fill:rgb(0,0,255);"/>
                    </g>
                </g>
                <g transform="matrix(0.305981,0,0,0.450671,1789.85,1333.31)">
                    <g transform="matrix(9.93205e-17,0.56415,-0.535792,-3.31068e-17,1856.59,1572.73)">
                        <path d="M2171.51,899.104L2401.78,1039.08L2401.78,1319.04L2171.51,1459.02L1941.25,1319.04L1941.25,1039.08L2171.51,899.104Z" style="fill:rgb(192,192,192);"/>
                        <path d="M1919.43,1035.03L1920.43,1031.1L1922.06,1027.42L1924.28,1024.09L1927.01,1021.21L1930.17,1018.88L2160.43,878.899L2163.93,877.181L2167.66,876.128L2171.51,875.774L2175.36,876.128L2179.09,877.181L2182.59,878.899L2412.86,1018.88L2416.02,1021.21L2418.75,1024.09L2420.97,1027.42L2422.6,1031.1L2423.6,1035.03L2423.93,1039.08L2423.93,1319.04L2423.6,1323.09L2422.6,1327.02L2420.97,1330.71L2418.75,1334.04L2416.02,1336.91L2412.86,1339.25L2182.59,1479.23L2179.09,1480.95L2175.36,1482L2171.51,1482.35L2167.66,1482L2163.93,1480.95L2160.43,1479.23L1930.17,1339.25L1927.01,1336.91L1924.28,1334.04L1922.06,1330.71L1920.43,1327.02L1919.43,1323.09L1919.09,1319.04L1919.09,1039.08L1919.43,1035.03ZM1941.25,1319.04L2171.51,1459.02L2401.78,1319.04L2401.78,1039.08L2171.51,899.104L1941.25,1039.08L1941.25,1319.04Z" style="fill:rgb(0,0,255);"/>
                    </g>
                    <g transform="matrix(7.19569e-17,0.408723,-0.388177,-2.39856e-17,1682.54,1910.25)">
                        <path d="M2171.51,899.104L2401.78,1039.08L2401.78,1319.04L2171.51,1459.02L1941.25,1319.04L1941.25,1039.08L2171.51,899.104Z" style="fill:rgb(192,192,192);"/>
                        <path d="M1911.13,1033.49L1912.51,1028.07L1914.76,1022.98L1917.82,1018.38L1921.59,1014.42L1925.96,1011.2L2156.22,871.216L2161.05,868.844L2166.2,867.391L2171.51,866.902L2176.82,867.391L2181.97,868.844L2186.8,871.216L2417.07,1011.2L2421.44,1014.42L2425.2,1018.38L2428.26,1022.98L2430.52,1028.07L2431.9,1033.49L2432.36,1039.08L2432.36,1319.04L2431.9,1324.63L2430.52,1330.06L2428.26,1335.14L2425.2,1339.74L2421.44,1343.71L2417.07,1346.93L2186.8,1486.91L2181.97,1489.28L2176.82,1490.74L2171.51,1491.22L2166.2,1490.74L2161.05,1489.28L2156.22,1486.91L1925.96,1346.93L1921.59,1343.71L1917.82,1339.74L1914.76,1335.14L1912.51,1330.06L1911.13,1324.63L1910.66,1319.04L1910.66,1039.08L1911.13,1033.49ZM1941.25,1319.04L2171.51,1459.02L2401.78,1319.04L2401.78,1039.08L2171.51,899.104L1941.25,1039.08L1941.25,1319.04Z" style="fill:rgb(0,0,255);"/>
                    </g>
                </g>
                <g transform="matrix(0.407974,0,0,0.600895,1746.96,830.477)">
                    <g transform="matrix(9.93205e-17,0.56415,-0.535792,-3.31068e-17,1856.59,1572.73)">
                        <path d="M2171.51,899.104L2401.78,1039.08L2401.78,1319.04L2171.51,1459.02L1941.25,1319.04L1941.25,1039.08L2171.51,899.104Z" style="fill:rgb(192,192,192);"/>
                        <path d="M1919.34,1035.61L1920.08,1032.21L1921.29,1028.96L1922.94,1025.94L1925.01,1023.22L1927.43,1020.84L1930.17,1018.88L2160.43,878.899L2163.42,877.386L2166.58,876.359L2169.86,875.839L2173.17,875.839L2176.44,876.359L2179.61,877.386L2182.59,878.899L2412.86,1018.88L2415.59,1020.84L2418.02,1023.22L2420.09,1025.94L2421.74,1028.96L2422.95,1032.21L2423.69,1035.61L2423.93,1039.08L2423.93,1319.04L2423.69,1322.52L2422.95,1325.92L2421.74,1329.16L2420.09,1332.18L2418.02,1334.91L2415.59,1337.28L2412.86,1339.25L2182.59,1479.23L2179.61,1480.74L2176.44,1481.77L2173.17,1482.29L2169.86,1482.29L2166.58,1481.77L2163.42,1480.74L2160.43,1479.23L1930.17,1339.25L1927.43,1337.28L1925.01,1334.91L1922.94,1332.18L1921.29,1329.16L1920.08,1325.92L1919.34,1322.52L1919.09,1319.04L1919.09,1039.08L1919.34,1035.61ZM1941.25,1319.04L2171.51,1459.02L2401.78,1319.04L2401.78,1039.08L2171.51,899.104L1941.25,1039.08L1941.25,1319.04Z" style="fill:rgb(0,0,255);"/>
                    </g>
                    <g transform="matrix(7.19569e-17,0.408723,-0.388177,-2.39856e-17,1682.54,1910.25)">
                        <path d="M2171.51,899.104L2401.78,1039.08L2401.78,1319.04L2171.51,1459.02L1941.25,1319.04L1941.25,1039.08L2171.51,899.104Z" style="fill:rgb(187,189,192);"/>
                        <path d="M1911.01,1034.28L1912.02,1029.59L1913.69,1025.11L1915.98,1020.94L1918.83,1017.18L1922.18,1013.91L1925.96,1011.2L2156.22,871.216L2160.34,869.128L2164.71,867.709L2169.23,866.992L2173.8,866.992L2178.32,867.709L2182.69,869.128L2186.8,871.216L2417.07,1011.2L2420.85,1013.91L2424.2,1017.18L2427.05,1020.94L2429.33,1025.11L2431,1029.59L2432.02,1034.28L2432.36,1039.08L2432.36,1319.04L2432.02,1323.84L2431,1328.54L2429.33,1333.02L2427.05,1337.18L2424.2,1340.95L2420.85,1344.22L2417.07,1346.93L2186.8,1486.91L2182.69,1489L2178.32,1490.42L2173.8,1491.13L2169.23,1491.13L2164.71,1490.42L2160.34,1489L2156.22,1486.91L1925.96,1346.93L1922.18,1344.22L1918.83,1340.95L1915.98,1337.18L1913.69,1333.02L1912.02,1328.54L1911.01,1323.84L1910.66,1319.04L1910.66,1039.08L1911.01,1034.28ZM1941.25,1319.04L2171.51,1459.02L2401.78,1319.04L2401.78,1039.08L2171.51,899.104L1941.25,1039.08L1941.25,1319.04Z" style="fill:rgb(0,0,255);"/>
                    </g>
                </g>
                <g transform="matrix(0.407974,0,0,0.600895,1746.96,830.477)">
                    <g transform="matrix(9.93205e-17,0.56415,-0.535792,-3.31068e-17,1856.59,1572.73)">
                        <path d="M2171.51,899.104L2401.78,1039.08L2401.78,1319.04L2171.51,1459.02L1941.25,1319.04L1941.25,1039.08L2171.51,899.104Z" style="fill:rgb(192,192,192);"/>
                        <path d="M1919.34,1035.61L1920.08,1032.21L1921.29,1028.96L1922.94,1025.94L1925.01,1023.22L1927.43,1020.84L1930.17,1018.88L2160.43,878.899L2163.42,877.386L2166.58,876.359L2169.86,875.839L2173.17,875.839L2176.44,876.359L2179.61,877.386L2182.59,878.899L2412.86,1018.88L2415.59,1020.84L2418.02,1023.22L2420.09,1025.94L2421.74,1028.96L2422.95,1032.21L2423.69,1035.61L2423.93,1039.08L2423.93,1319.04L2423.69,1322.52L2422.95,1325.92L2421.74,1329.16L2420.09,1332.18L2418.02,1334.91L2415.59,1337.28L2412.86,1339.25L2182.59,1479.23L2179.61,1480.74L2176.44,1481.77L2173.17,1482.29L2169.86,1482.29L2166.58,1481.77L2163.42,1480.74L2160.43,1479.23L1930.17,1339.25L1927.43,1337.28L1925.01,1334.91L1922.94,1332.18L1921.29,1329.16L1920.08,1325.92L1919.34,1322.52L1919.09,1319.04L1919.09,1039.08L1919.34,1035.61ZM1941.25,1319.04L2171.51,1459.02L2401.78,1319.04L2401.78,1039.08L2171.51,899.104L1941.25,1039.08L1941.25,1319.04Z" style="fill:rgb(0,0,255);"/>
                    </g>
                    <g transform="matrix(7.19569e-17,0.408723,-0.388177,-2.39856e-17,1682.54,1910.25)">
                        <path d="M2171.51,899.104L2401.78,1039.08L2401.78,1319.04L2171.51,1459.02L1941.25,1319.04L1941.25,1039.08L2171.51,899.104Z" style="fill:rgb(187,189,192);"/>
                        <path d="M1911.01,1034.28L1912.02,1029.59L1913.69,1025.11L1915.98,1020.94L1918.83,1017.18L1922.18,1013.91L1925.96,1011.2L2156.22,871.216L2160.34,869.128L2164.71,867.709L2169.23,866.992L2173.8,866.992L2178.32,867.709L2182.69,869.128L2186.8,871.216L2417.07,1011.2L2420.85,1013.91L2424.2,1017.18L2427.05,1020.94L2429.33,1025.11L2431,1029.59L2432.02,1034.28L2432.36,1039.08L2432.36,1319.04L2432.02,1323.84L2431,1328.54L2429.33,1333.02L2427.05,1337.18L2424.2,1340.95L2420.85,1344.22L2417.07,1346.93L2186.8,1486.91L2182.69,1489L2178.32,1490.42L2173.8,1491.13L2169.23,1491.13L2164.71,1490.42L2160.34,1489L2156.22,1486.91L1925.96,1346.93L1922.18,1344.22L1918.83,1340.95L1915.98,1337.18L1913.69,1333.02L1912.02,1328.54L1911.01,1323.84L1910.66,1319.04L1910.66,1039.08L1911.01,1034.28ZM1941.25,1319.04L2171.51,1459.02L2401.78,1319.04L2401.78,1039.08L2171.51,899.104L1941.25,1039.08L1941.25,1319.04Z" style="fill:rgb(0,0,255);"/>
                    </g>
                </g>
            </g>
        </g>
    </g>
</svg>
